<?xml version="1.0" standalone="no"?>
<!DOCTYPE svg PUBLIC "-//W3C//DTD SVG 1.1//EN" "http://www.w3.org/Graphics/SVG/1.1/DTD/svg11.dtd" >
<svg xmlns="http://www.w3.org/2000/svg">
<metadata></metadata>
<defs>
<font id="akrobatextrabold" horiz-adv-x="465" >
<font-face units-per-em="1000" ascent="800" descent="-200" />
<missing-glyph horiz-adv-x="207" />
<glyph horiz-adv-x="0" />
<glyph horiz-adv-x="333" />
<glyph unicode=" "  horiz-adv-x="207" />
<glyph unicode="&#x09;" horiz-adv-x="207" />
<glyph unicode="&#xa0;" horiz-adv-x="207" />
<glyph unicode="!" horiz-adv-x="266" d="M73 181v519h119v-519h-119zM133 -12q-31 0 -49.5 19t-18.5 50t18.5 49.5t49.5 18.5t49.5 -18.5t18.5 -49.5t-18.5 -50t-49.5 -19z" />
<glyph unicode="&#x22;" horiz-adv-x="313" d="M42 700h112l-62 -250h-71zM187 700h113l-63 -250h-70z" />
<glyph unicode="#" horiz-adv-x="646" d="M84 0l40 174h-116l20 87h115l38 167h-115l20 87h115l43 185h107l-42 -185h105l43 185h108l-42 -185h115l-20 -87h-115l-39 -167h116l-20 -87h-115l-40 -174h-108l40 174h-106l-40 -174h-107zM250 261h106l38 167h-105z" />
<glyph unicode="$" horiz-adv-x="472" d="M446 183q0 -74 -43 -126.5t-119 -66.5v-75h-102v76q-75 14 -117 67.5t-43 139.5h126q1 -92 87 -92q41 0 62 21.5t21 56.5q0 29 -21 55t-52 44.5t-68 43t-68 49.5t-52 66t-21 90q0 67 39 115t107 62v76h102v-76q71 -14 111 -65.5t41 -131.5h-126q-1 83 -76 83 q-34 0 -53.5 -18t-19.5 -48q0 -25 15.5 -46t41 -38t56 -34t60.5 -38t55.5 -46t41 -62t15.5 -82z" />
<glyph unicode="%" horiz-adv-x="593" d="M111 388q-48 0 -76.5 28.5t-28.5 80.5v104q0 52 28.5 81t76.5 29t76.5 -29t28.5 -81v-104q0 -52 -28.5 -80.5t-76.5 -28.5zM17 0l476 700h82l-476 -700h-82zM111 453q32 0 32 43v106q0 44 -32 44q-33 0 -33 -44v-106q0 -43 33 -43zM468 -9q-48 0 -76.5 28.5t-28.5 81.5 v103q0 53 28.5 82t76.5 29t76.5 -29t28.5 -82v-103q0 -53 -28.5 -81.5t-76.5 -28.5zM468 56q32 0 32 43v107q0 43 -32 43q-33 0 -33 -43v-107q0 -43 33 -43z" />
<glyph unicode="&#x26;" horiz-adv-x="597" d="M560 0h-122q-24 36 -36 53q-70 -67 -157 -67q-73 0 -126 47.5t-53 130.5q0 62 29 111.5t80 99.5q-70 112 -70 179q0 64 40.5 112t116.5 48q78 0 117.5 -46.5t39.5 -113.5q0 -56 -28 -101t-79 -95q31 -42 89 -125q14 32 21 58h110q-21 -84 -64 -155q67 -98 92 -136z M211 550q0 -36 41 -102q60 58 60 104q0 24 -12.5 42t-37.5 18q-22 0 -36.5 -15.5t-14.5 -46.5zM251 96q45 0 89 46q-17 24 -52 72t-51 71q-56 -59 -56 -112q0 -35 19.5 -56t50.5 -21z" />
<glyph unicode="'" horiz-adv-x="168" d="M42 700h112l-62 -250h-71z" />
<glyph unicode="(" horiz-adv-x="302" d="M260 -123q-93 1 -143.5 54t-50.5 147v541q0 94 50.5 147t143.5 54v-110q-76 -2 -76 -84v-555q0 -81 76 -84v-110z" />
<glyph unicode=")" horiz-adv-x="302" d="M42 -123v110q76 3 76 84v555q0 82 -76 84v110q93 -1 143.5 -54t50.5 -147v-541q0 -94 -50.5 -147t-143.5 -54z" />
<glyph unicode="*" horiz-adv-x="313" d="M111 480l-62 45l46 62l-74 24l24 73l73 -24v77h77v-77l73 24l24 -73l-74 -23l46 -63l-62 -45l-46 62z" />
<glyph unicode="+" horiz-adv-x="471" d="M430 364v-108h-140v-144h-109v144h-140v108h140v144h109v-144h140z" />
<glyph unicode="," horiz-adv-x="181" d="M44 110h113l-63 -250h-70z" />
<glyph unicode="-" horiz-adv-x="315" d="M34 206v102h247v-102h-247z" />
<glyph unicode="." horiz-adv-x="200" d="M100 -12q-31 0 -49.5 19t-18.5 50t18.5 49.5t49.5 18.5t50 -18.5t19 -49.5t-19 -50t-50 -19z" />
<glyph unicode="/" horiz-adv-x="433" d="M326 815h102l-320 -936h-103z" />
<glyph unicode="0" horiz-adv-x="480" d="M239 -10q-90 0 -141.5 54.5t-51.5 149.5v310q0 96 51.5 151t141.5 55q91 0 143 -55t52 -151v-310q0 -95 -52 -149.5t-143 -54.5zM239 100q82 0 82 94v310q0 96 -82 96q-80 0 -80 -96v-310q0 -94 80 -94z" />
<glyph unicode="1" horiz-adv-x="307" d="M162 700h79v-699h-117v540l-100 -63v130z" />
<glyph unicode="2" horiz-adv-x="430" d="M25 0v76q0 63 26.5 120.5t64 100.5t74.5 81t63.5 77.5t26.5 74.5q0 30 -17 50.5t-50 20.5q-32 0 -50.5 -22t-19.5 -62h-112q4 94 51.5 144.5t129.5 50.5q88 0 136.5 -52.5t48.5 -124.5q0 -51 -25.5 -101.5t-62.5 -91.5t-73.5 -79.5t-62 -78.5t-25.5 -75h253v-109h-376z " />
<glyph unicode="3" horiz-adv-x="429" d="M255 429q63 -7 99.5 -58t36.5 -122v-45q0 -216 -189 -216q-88 0 -137 53t-52 150h116q6 -88 71 -88q40 0 56.5 24.5t16.5 79.5v38q0 52 -20.5 72.5t-62.5 20.5h-65v79l107 176h-195v107h338v-78z" />
<glyph unicode="4" horiz-adv-x="447" d="M445 273v-107h-75v-166h-115v166h-248v63l136 471h117l-125 -427h122l16 239h97v-239h75z" />
<glyph unicode="5" horiz-adv-x="446" d="M251 480q73 0 118 -54.5t45 -150.5v-72q0 -103 -49 -159t-134 -56q-83 0 -132.5 52.5t-51.5 143.5h119q4 -81 65 -81q32 0 48 22t16 76v75q0 50 -14.5 71t-44.5 21q-54 0 -67 -61h-115v393h337v-105h-220v-139q38 24 80 24z" />
<glyph unicode="6" horiz-adv-x="454" d="M251 458q74 0 121 -49.5t47 -126.5v-105q0 -85 -52 -137t-135 -52q-82 0 -134 52t-52 137v347q0 85 51 136.5t134 51.5q80 0 130.5 -50.5t53.5 -135.5h-118q-6 71 -66 71q-31 0 -48.5 -18t-17.5 -53v-97q35 29 86 29zM300 178v96q0 36 -18.5 56t-49.5 20t-49 -20t-18 -56 v-96q0 -35 18 -55t49 -20t49.5 19.5t18.5 55.5z" />
<glyph unicode="7" horiz-adv-x="379" d="M-7 700h366v-85l-188 -615h-123l178 592h-233v108z" />
<glyph unicode="8" d="M355 367q72 -50 72 -148v-28q0 -94 -52.5 -148.5t-141.5 -54.5t-141.5 54t-52.5 149v28q0 46 19 85t52 62q-59 54 -59 138v18q0 86 49.5 138t132.5 52t132.5 -52t49.5 -138v-18q0 -82 -60 -137zM166 518v-18q0 -84 67 -84q66 0 66 84v18q0 80 -66 80q-67 0 -67 -80z M309 191v27q0 88 -76 88q-77 0 -77 -88v-27q0 -87 77 -87q76 0 76 87z" />
<glyph unicode="9" horiz-adv-x="454" d="M222 712q82 0 134 -52t52 -137v-347q0 -85 -51 -136.5t-134 -51.5q-80 0 -130.5 50.5t-53.5 135.5h118q6 -71 66 -71q31 0 48.5 18t17.5 53v97q-35 -29 -86 -29q-74 0 -121 49.5t-47 126.5v105q0 85 52 137t135 52zM222 350q31 0 49 20t18 56v96q0 35 -18 55t-49 20 t-49.5 -19.5t-18.5 -55.5v-96q0 -36 18.5 -56t49.5 -20z" />
<glyph unicode=":" horiz-adv-x="186" d="M99 328q-31 0 -49.5 19t-18.5 50t18.5 49.5t49.5 18.5t50 -18.5t19 -49.5t-19 -50t-50 -19zM99 -12q-31 0 -49.5 19t-18.5 50t18.5 49.5t49.5 18.5t50 -18.5t19 -49.5t-19 -50t-50 -19z" />
<glyph unicode=";" horiz-adv-x="190" d="M98 330q-31 0 -50 19t-19 49q0 31 19 50t50 19t49.5 -19t18.5 -50q0 -30 -18.5 -49t-49.5 -19zM44 110h113l-63 -250h-70z" />
<glyph unicode="&#x3c;" horiz-adv-x="441" d="M400 492v-110l-238 -83l238 -84v-110l-359 137v114z" />
<glyph unicode="=" horiz-adv-x="471" d="M41 350v107h389v-107h-389zM41 153v106h389v-106h-389z" />
<glyph unicode="&#x3e;" horiz-adv-x="441" d="M41 492l359 -136v-114l-359 -137v110l238 84l-238 83v110z" />
<glyph unicode="?" horiz-adv-x="403" d="M127 181v34q0 52 14 93t33.5 66.5t39.5 47.5t34 49t14 58q0 32 -17 53.5t-53 21.5q-71 0 -74 -91h-114q5 93 54.5 146.5t132.5 53.5t135.5 -50.5t52.5 -132.5q0 -42 -14 -77.5t-34 -60l-40 -49t-34 -57t-14 -70.5v-35h-116zM186 -12q-31 0 -49.5 19t-18.5 50t18.5 49.5 t49.5 18.5t50 -18.5t19 -49.5t-19 -50t-50 -19z" />
<glyph unicode="@" horiz-adv-x="818" d="M416 728q172 0 266 -86t94 -243v-108q0 -101 -50.5 -150t-118.5 -49q-74 0 -106 64q-33 -66 -111 -66q-62 0 -97.5 39.5t-35.5 113.5v118q0 77 35.5 117t91.5 40q60 0 91 -52l7 38h71v-248q0 -37 11 -55.5t43 -18.5q75 0 75 109v108q0 117 -67.5 177.5t-197.5 60.5 q-137 0 -209 -66t-72 -192v-115q0 -143 74 -218.5t216 -75.5q117 0 207 46l47 -71q-94 -65 -248 -65q-187 0 -288.5 100t-101.5 284v115q0 166 99 257.5t275 91.5zM403 181q25 0 40 18.5t15 52.5v106q0 31 -14 50t-40 19q-50 0 -50 -63v-118q0 -65 49 -65z" />
<glyph unicode="A" horiz-adv-x="485" d="M353 0l-28 127h-164l-28 -127h-128l172 700h132l172 -700h-128zM186 244h114l-28 130q-8 40 -28 172h-3q-14 -109 -27 -172z" />
<glyph unicode="B" horiz-adv-x="513" d="M392 359q42 -21 65.5 -62t23.5 -92q0 -93 -56.5 -149t-147.5 -56h-211v700h205q83 0 134 -53.5t51 -141.5q0 -96 -64 -146zM252 584h-63v-172h67q75 0 75 88q0 84 -79 84zM258 116q97 0 97 89q0 45 -25.5 68.5t-72.5 23.5h-68v-181h69z" />
<glyph unicode="C" horiz-adv-x="498" d="M256 -12q-99 0 -154.5 57.5t-55.5 164.5v280q0 108 55.5 166t154.5 58q100 0 155.5 -57.5t60.5 -164.5h-123q-3 54 -26 78.5t-68 24.5q-82 0 -82 -105v-280q0 -103 83 -103q46 0 69 24.5t27 76.5h123q-4 -106 -60.5 -163t-158.5 -57z" />
<glyph unicode="D" horiz-adv-x="515" d="M66 0v700h183q104 0 162 -59.5t58 -166.5v-245q0 -108 -57.5 -168.5t-160.5 -60.5h-185zM189 117h62q94 0 94 113v244q0 109 -94 109h-62v-466z" />
<glyph unicode="E" d="M189 116h239v-116h-362v700h352v-116h-229v-173h210v-112h-210v-183z" />
<glyph unicode="F" horiz-adv-x="428" d="M404 584h-215v-175h196v-113h-196v-296h-123v700h338v-116z" />
<glyph unicode="G" horiz-adv-x="512" d="M260 -12q-101 0 -157.5 58t-56.5 165v278q0 108 56.5 165.5t157.5 57.5q97 0 151 -56.5t58 -163.5h-123q-2 53 -23 77t-63 24q-87 0 -87 -104v-278q0 -104 89 -104q91 0 91 102v68h-97v109h217v-177q-2 -106 -58 -163.5t-155 -57.5z" />
<glyph unicode="H" horiz-adv-x="548" d="M358 700h124v-700h-124v295h-169v-295h-123v700h123v-288h169v288z" />
<glyph unicode="I" horiz-adv-x="254" d="M66 700h123v-700h-123v700z" />
<glyph unicode="J" horiz-adv-x="304" d="M0 -136v122q60 0 89 27.5t29 95.5v591h123v-591q0 -117 -61.5 -181t-179.5 -64z" />
<glyph unicode="K" horiz-adv-x="517" d="M377 0l-147 285l-43 -67v-218h-121v700h121v-287l41 82l117 205h142l-188 -305l218 -395h-140z" />
<glyph unicode="L" horiz-adv-x="414" d="M189 117h219v-117h-342v700h123v-583z" />
<glyph unicode="M" horiz-adv-x="708" d="M518 700h125v-700h-121v219q6 157 10 241l-5 2q-11 -31 -33 -93.5t-32 -90.5l-47 -124h-122l-47 124q-44 126 -65 184l-5 -2q4 -84 10 -241v-219h-120v700h124l114 -274q33 -81 48 -130h4q12 39 49 130z" />
<glyph unicode="N" horiz-adv-x="563" d="M376 700h121v-700h-122l-135 304q-59 153 -65 171l-3 -3q15 -132 15 -271v-201h-121v700h122l146 -329q10 -25 29.5 -75.5t26.5 -67.5l3 3q-17 134 -17 256v213z" />
<glyph unicode="O" horiz-adv-x="533" d="M267 -12q-104 0 -162.5 63t-58.5 174v250q0 111 58.5 174t162.5 63q103 0 161.5 -63t58.5 -174v-250q0 -111 -58.5 -174t-161.5 -63zM267 107q93 0 93 118v250q0 118 -93 118q-94 0 -94 -118v-250q0 -118 94 -118z" />
<glyph unicode="P" horiz-adv-x="514" d="M260 700q106 0 165 -61.5t59 -171.5t-59 -171t-165 -61h-71v-235h-123v700h194zM259 351q99 0 99 116t-99 116h-70v-232h70z" />
<glyph unicode="Q" horiz-adv-x="542" d="M493 475v-250q0 -109 -57 -172l55 -66l-72 -63l-63 77q-38 -13 -85 -13q-104 0 -162.5 63t-58.5 174v250q0 111 58.5 174t162.5 63t163 -63t59 -174zM177 225q0 -118 94 -118t94 118v250q0 118 -94 118t-94 -118v-250z" />
<glyph unicode="R" horiz-adv-x="516" d="M370 0l-125 244h-56v-244h-123v700h192q103 0 159.5 -59.5t56.5 -166.5q0 -155 -110 -208l141 -266h-135zM189 583v-222h68q91 0 91 112q0 110 -91 110h-68z" />
<glyph unicode="S" horiz-adv-x="472" d="M234 -14q-98 0 -154.5 56t-57.5 156h126q1 -92 87 -92q41 0 62 21.5t21 56.5q0 29 -21 55t-52 44.5t-68 43t-68 49.5t-52 66t-21 90q0 80 53.5 131t144.5 51q94 0 147.5 -54t54.5 -148h-126q-1 83 -76 83q-34 0 -53.5 -18t-19.5 -48q0 -25 15.5 -46t41 -38t56 -34 t60.5 -38t55.5 -46t41 -62t15.5 -82q0 -85 -57 -141t-155 -56z" />
<glyph unicode="T" horiz-adv-x="440" d="M424 700v-117h-141v-583h-126v583h-141v117h408z" />
<glyph unicode="U" horiz-adv-x="538" d="M269 -11q-100 0 -157.5 61t-57.5 171v479h127v-479q0 -113 88 -113t88 113v479h128v-479q0 -110 -57.5 -171t-158.5 -61z" />
<glyph unicode="V" horiz-adv-x="479" d="M174 0l-169 700h128l73 -356q15 -75 31 -191h4q23 143 32 191l73 356h128l-169 -700h-131z" />
<glyph unicode="W" horiz-adv-x="773" d="M641 700h127l-157 -700h-131l-58 269q-25 110 -33 227h-4q-11 -125 -34 -227l-58 -269h-131l-157 700h127l63 -355q23 -128 30 -191h4q3 22 31 193l62 343h129l62 -343q28 -171 31 -193h4q7 63 30 191z" />
<glyph unicode="X" horiz-adv-x="492" d="M478 0h-135l-97 233l-97 -233h-135l166 362l-156 338h134l88 -212l88 212h134l-156 -338z" />
<glyph unicode="Y" horiz-adv-x="460" d="M169 0v218l-168 482h128l67 -212q15 -44 33 -111h3q15 59 33 113l66 210h128l-167 -482v-218h-123z" />
<glyph unicode="Z" horiz-adv-x="427" d="M166 117h239v-117h-390v84l235 499h-219v117h369v-85z" />
<glyph unicode="[" horiz-adv-x="311" d="M269 711h-86v-722h86v-109h-203v940h203v-109z" />
<glyph unicode="\" horiz-adv-x="505" d="M143 815l321 -936h-103l-320 936h102z" />
<glyph unicode="]" horiz-adv-x="311" d="M42 -11h86v722h-86v109h203v-940h-203v109z" />
<glyph unicode="^" horiz-adv-x="349" d="M341 473h-104l-62 133l-63 -133h-105l116 227h102z" />
<glyph unicode="_" horiz-adv-x="379" d="M17 -10h345v-113h-345v113z" />
<glyph unicode="a" horiz-adv-x="458" d="M228 542q177 0 177 -199v-343h-95l-7 50q-36 -64 -117 -64q-72 0 -115.5 46t-43.5 119q0 81 53.5 123.5t143.5 42.5h62v26q0 85 -60 85q-59 0 -66 -58h-118q4 80 53 126t133 46zM286 162v55h-60q-79 0 -79 -66q0 -28 17 -45t50 -17t52.5 19.5t19.5 53.5z" />
<glyph unicode="b" horiz-adv-x="470" d="M259 542q77 0 123.5 -56t46.5 -150v-141q0 -95 -46.5 -151t-123.5 -56q-32 0 -63.5 17t-52.5 42l-7 -48h-82v726h115v-218q40 35 90 35zM309 195v141q0 93 -68 93q-35 0 -53.5 -24t-18.5 -69v-141q0 -46 19 -70.5t53 -24.5q68 0 68 95z" />
<glyph unicode="c" horiz-adv-x="440" d="M226 -12q-86 0 -135 52t-49 145v161q0 92 49 144t135 52q89 0 137 -51.5t51 -144.5h-119q-3 83 -67 83q-67 0 -67 -83v-161q0 -84 67 -84q66 0 70 84h119q-2 -93 -52.5 -145t-138.5 -52z" />
<glyph unicode="d" horiz-adv-x="470" d="M301 725h116v-726h-83l-6 49q-20 -26 -52 -43t-65 -17q-76 0 -122.5 56t-46.5 151v141q0 94 46 150t123 56q50 0 90 -35v218zM301 195v141q0 45 -18.5 69t-52.5 24q-68 0 -68 -93v-141q0 -95 68 -95q34 0 52.5 24t18.5 71z" />
<glyph unicode="e" horiz-adv-x="456" d="M305 167h119q-8 -85 -59 -132t-138 -47q-86 0 -135.5 54t-49.5 150v149q0 95 49.5 148t136.5 53q89 0 139 -53t50 -148v-118h-257v-31q0 -91 69 -91q36 0 52.5 15t23.5 51zM229 432q-69 0 -69 -90v-35h140v35q0 90 -71 90z" />
<glyph unicode="f" horiz-adv-x="311" d="M273 632q-38 0 -55 -19.5t-17 -63.5v-20h95v-108h-95v-421h-117v421h-75v108h75v20q0 87 46.5 138.5t142.5 51.5h33v-107h-33z" />
<glyph unicode="g" horiz-adv-x="474" d="M337 529h83v-551q0 -78 -48.5 -125t-133.5 -47q-83 0 -131 46.5t-50 124.5h116q6 -61 65 -61q29 0 45.5 16.5t16.5 45.5v73q-40 -27 -89 -27q-74 0 -121.5 54.5t-47.5 141.5v122q0 89 47.5 144.5t121.5 55.5q72 0 118 -49zM230 136q70 0 70 84v124q0 41 -18.5 62.5 t-51.5 21.5q-69 0 -69 -86v-122q0 -84 69 -84z" />
<glyph unicode="h" horiz-adv-x="473" d="M276 542q71 0 109.5 -55.5t38.5 -163.5v-323h-118v322q0 57 -15 82t-47 25q-34 0 -53 -25.5t-19 -72.5v-331h-118v724h118v-239q41 57 104 57z" />
<glyph unicode="i" horiz-adv-x="226" d="M113 611q-30 0 -49 19.5t-19 49.5t19 49.5t49 19.5q29 0 49 -19.5t20 -49.5q0 -28 -20 -48.5t-49 -20.5zM54 0v529h118v-529h-118z" />
<glyph unicode="j" horiz-adv-x="254" d="M131 610q-30 0 -49 19.5t-19 49.5t19 49.5t49 19.5q29 0 49 -19.5t20 -49.5q0 -28 -20 -48.5t-49 -20.5zM-12 -194v113q85 1 85 86v524h118v-517q0 -98 -52 -151.5t-151 -54.5z" />
<glyph unicode="k" horiz-adv-x="449" d="M321 0l-119 226l-31 -33v-193h-117v725h117v-381l122 185h137l-150 -211l174 -318h-133z" />
<glyph unicode="l" horiz-adv-x="216" d="M49 0v725h118v-725h-118z" />
<glyph unicode="m" horiz-adv-x="712" d="M515 542q70 0 109 -54.5t39 -160.5v-327h-117v326q0 103 -59 103q-32 0 -51 -25.5t-19 -72.5v-331h-117v326q0 55 -15 79t-45 24q-32 0 -50.5 -25.5t-18.5 -72.5v-331h-117v529h79l10 -56q41 69 125 69q82 0 120 -71q42 71 127 71z" />
<glyph unicode="n" horiz-adv-x="473" d="M272 542q73 0 112.5 -54t39.5 -160v-328h-118v325q0 104 -62 104q-34 0 -53 -25.5t-19 -72.5v-331h-118v529h80l10 -57q42 70 128 70z" />
<glyph unicode="o" horiz-adv-x="467" d="M233 -13q-90 0 -140.5 54t-50.5 152v143q0 98 50.5 152t140.5 54q91 0 141.5 -54t50.5 -152v-143q0 -98 -50.5 -152t-141.5 -54zM233 102q72 0 72 91v143q0 91 -72 91q-71 0 -71 -91v-143q0 -91 71 -91z" />
<glyph unicode="p" horiz-adv-x="470" d="M259 541q77 0 123.5 -56t46.5 -151v-141q0 -95 -46.5 -150.5t-123.5 -55.5q-52 0 -90 35v-202h-115v710h82l7 -49q20 26 51.5 43t64.5 17zM309 193v141q0 95 -68 95q-34 0 -53 -24.5t-19 -70.5v-141q0 -45 19 -69.5t53 -24.5q68 0 68 94z" />
<glyph unicode="q" horiz-adv-x="470" d="M334 530h83v-710h-116v201q-39 -34 -90 -34q-77 0 -123 55.5t-46 150.5v141q0 95 46.5 151t122.5 56q33 0 65 -17t52 -43zM230 99q34 0 52.5 24.5t18.5 69.5v141q0 47 -18.5 71t-52.5 24q-68 0 -68 -95v-141q0 -94 68 -94z" />
<glyph unicode="r" horiz-adv-x="345" d="M279 541q36 0 57 -10v-114q-31 13 -65 13q-47 0 -73 -26t-26 -75v-329h-118v529h80l10 -58q44 70 135 70z" />
<glyph unicode="s" horiz-adv-x="425" d="M219 -14q-92 0 -144 52t-54 128h118q1 -31 19.5 -51.5t57.5 -20.5q32 0 50 14.5t18 38.5q0 22 -19 38.5t-47 26.5t-61 25t-61 31.5t-47 48.5t-19 74q0 70 48 110.5t129 40.5q86 0 131 -47t50 -126h-114q-3 68 -67 68q-28 0 -44 -13t-16 -34q0 -23 26.5 -39t63.5 -29 t74.5 -31t64 -54.5t26.5 -89.5q0 -73 -49 -117t-134 -44z" />
<glyph unicode="t" horiz-adv-x="326" d="M265 104h33v-111h-40q-82 0 -129.5 49.5t-47.5 135.5v244h-71v107h71v126h117v-126h92v-107h-92v-245q0 -73 67 -73z" />
<glyph unicode="u" horiz-adv-x="473" d="M301 529h118v-529h-80l-10 57q-42 -70 -128 -70q-73 0 -112.5 54t-39.5 160v328h118v-325q0 -104 62 -104q34 0 53 25.5t19 72.5v331z" />
<glyph unicode="v" horiz-adv-x="422" d="M295 529h125l-143 -529h-132l-143 529h125l44 -199q21 -93 37 -191h6q29 152 37 191z" />
<glyph unicode="w" horiz-adv-x="652" d="M528 529h122l-123 -529h-127l-35 152q-29 127 -36 224h-5q-8 -97 -36 -224l-35 -152h-128l-123 529h122l37 -209q23 -141 28 -190h5q7 57 30 185l40 204h125l39 -204q23 -128 30 -185h5q5 49 28 190z" />
<glyph unicode="x" horiz-adv-x="423" d="M427 0h-133l-83 169l-82 -169h-133l142 266l-129 263h129l73 -162l73 162h130l-127 -263z" />
<glyph unicode="y" horiz-adv-x="434" d="M311 529h121l-164 -556q-22 -77 -57 -119.5t-94 -42.5h-61v114h37q26 0 39 16t24 53l17 60l-171 475h123l98 -305z" />
<glyph unicode="z" horiz-adv-x="371" d="M158 108h199v-108h-351v75l192 345h-173v109h322v-75z" />
<glyph unicode="{" horiz-adv-x="339" d="M222 495q0 -91 -62 -144q62 -53 62 -144v-141q0 -34 20 -54t56 -20v-112q-90 0 -141 53t-51 147v142q0 69 -64 72v114q64 3 64 72v140q0 94 51 147t141 53v-112q-36 0 -56 -20t-20 -54v-139z" />
<glyph unicode="|" horiz-adv-x="219" d="M49 803h120v-899h-120v899z" />
<glyph unicode="}" horiz-adv-x="339" d="M233 478q0 -69 64 -72v-114q-64 -3 -64 -72v-140q0 -94 -51 -147t-141 -53v112q36 0 56 20t20 54v139q0 91 62 144q-62 53 -62 144v141q0 34 -20 54t-56 20v112q90 0 141 -53t51 -147v-142z" />
<glyph unicode="~" horiz-adv-x="475" d="M382 374l63 -74q-44 -66 -110 -66q-37 0 -98 23.5t-84 23.5q-36 0 -61 -37l-60 73q43 66 109 66q36 0 97 -23.5t84 -23.5q37 0 60 38z" />
<glyph unicode="&#xa1;" horiz-adv-x="266" d="M133 540q31 0 49.5 -18.5t18.5 -49.5t-18.5 -49.5t-49.5 -18.5t-49.5 18.5t-18.5 49.5t18.5 49.5t49.5 18.5zM73 348h119v-528h-119v528z" />
<glyph unicode="&#xa2;" horiz-adv-x="438" d="M416 185q-2 -80 -40 -130t-106 -63v-67h-92v68q-65 13 -100.5 63t-35.5 129v160q0 78 35.5 127.5t100.5 62.5v66h92v-65q68 -12 104.5 -61t38.5 -130h-119q-3 82 -67 82q-66 0 -66 -82v-160q0 -84 66 -84q67 0 70 84h119z" />
<glyph unicode="&#xa3;" horiz-adv-x="482" d="M189 113h262v-113h-424v102q59 7 59 85v104h-60v104h60v124q0 87 48.5 140t128.5 53t129.5 -53.5t54.5 -148.5h-119q-9 83 -66 83q-26 0 -41.5 -18.5t-15.5 -54.5v-125h157v-104h-157v-103q0 -45 -16 -75z" />
<glyph unicode="&#xa4;" d="M100 71l-68 49l52 71q-21 37 -21 92v77q0 52 20 92l-51 70l68 50l43 -59q39 23 89 23t91 -23l42 59l68 -50l-51 -70q20 -40 20 -92v-77q0 -55 -21 -92l52 -71l-68 -49l-44 59q-38 -22 -89 -22q-50 0 -88 22zM232 212q60 0 60 72v75q0 72 -60 72q-59 0 -59 -72v-75 q0 -72 59 -72z" />
<glyph unicode="&#xa5;" horiz-adv-x="460" d="M459 700l-142 -409h132v-72h-157v-61h157v-72h-157v-86h-123v86h-158v72h158v61h-158v72h133l-143 409h128l67 -212q15 -44 33 -111h3q15 59 33 113l66 210h128z" />
<glyph unicode="&#xa6;" horiz-adv-x="199" d="M39 488v315h120v-315h-120zM39 -92v316h120v-316h-120z" />
<glyph unicode="&#xa7;" horiz-adv-x="428" d="M346 216q51 -44 51 -110q0 -74 -48 -118t-132 -44q-91 0 -140.5 51.5t-51.5 127.5h117q4 -71 72 -71q31 0 48 14.5t17 40.5q0 25 -26.5 43t-64.5 33t-75.5 33.5t-64 54.5t-26.5 86q0 81 67 122q-52 44 -52 112t46.5 108t124.5 40q84 0 127.5 -46.5t48.5 -125.5h-114 q-3 66 -62 66q-26 0 -40.5 -12.5t-14.5 -31.5q0 -20 18.5 -35.5t46 -26t60 -26.5t60 -34.5t46 -53t18.5 -80.5q0 -75 -56 -117zM245 282q39 9 39 48q0 27 -22.5 45t-64.5 36q-25 -1 -41.5 -15t-16.5 -36q0 -26 25.5 -43t80.5 -35z" />
<glyph unicode="&#xa9;" horiz-adv-x="684" d="M342 -7q-140 0 -218 85.5t-78 238.5v76q0 151 78 236t218 85t218 -85t78 -236v-76q0 -153 -78 -238.5t-218 -85.5zM342 67q106 0 161 64t55 186v76q0 121 -55 183.5t-161 62.5t-161 -62.5t-55 -183.5v-76q0 -122 55 -186t161 -64zM340 150q-60 0 -94.5 37.5t-34.5 103.5 v123q0 66 34.5 103t94.5 37q62 0 96 -36.5t36 -103.5h-83q-1 59 -47 59q-48 0 -48 -59v-123q0 -59 48 -59q47 0 50 59h83q-1 -67 -37 -104t-98 -37z" />
<glyph unicode="&#xab;" horiz-adv-x="488" d="M147 86l-113 151v40l113 151h116l-127 -171l127 -171h-116zM338 86l-113 151v40l113 151h116l-127 -171l127 -171h-116z" />
<glyph unicode="&#xac;" horiz-adv-x="475" d="M441 364v-177h-107v69h-290v108h397z" />
<glyph unicode="&#xad;" horiz-adv-x="315" d="M34 206v102h247v-102h-247z" />
<glyph unicode="&#xae;" horiz-adv-x="456" d="M231 714q86 0 133.5 -49.5t47.5 -141.5v-59q0 -96 -47.5 -147.5t-133.5 -51.5q-87 0 -134.5 51.5t-47.5 147.5v59q0 92 47.5 141.5t134.5 49.5zM369 463v59q0 151 -138 151q-139 0 -139 -151v-59q0 -159 139 -159q138 0 138 159zM310 533q0 -51 -38 -72l49 -92h-50 l-42 84h-20v-84h-46v244h70q37 0 57 -21t20 -59zM209 569v-73h23q32 0 32 37q0 36 -32 36h-23z" />
<glyph unicode="&#xb0;" horiz-adv-x="311" d="M22 576q0 61 36.5 98.5t97.5 37.5t97.5 -37.5t36.5 -98.5q0 -62 -36.5 -99.5t-97.5 -37.5t-97.5 37.5t-36.5 99.5zM101 576q0 -27 15 -43.5t40 -16.5t40 16.5t15 43.5t-15 43.5t-40 16.5t-40 -16.5t-15 -43.5z" />
<glyph unicode="&#xb1;" horiz-adv-x="475" d="M292 428h140v-106h-140v-130h-109v130h-139v106h139v130h109v-130zM44 45v101h388v-101h-388z" />
<glyph unicode="&#xb6;" horiz-adv-x="615" d="M549 704v-795h-119v683h-104v-683h-119v470q-74 0 -119.5 44t-45.5 118q0 75 45.5 119t119.5 44h342z" />
<glyph unicode="&#xb7;" horiz-adv-x="200" d="M100 189q-31 0 -49.5 19t-18.5 50t18.5 49.5t49.5 18.5t50 -18.5t19 -49.5t-19 -50t-50 -19z" />
<glyph unicode="&#xbb;" horiz-adv-x="488" d="M150 86h-116l127 171l-127 171h116l113 -151v-40zM341 86h-116l127 171l-127 171h116l113 -151v-40z" />
<glyph unicode="&#xbf;" horiz-adv-x="403" d="M209 538q31 0 49.5 -18.5t18.5 -49.5t-18.5 -49.5t-49.5 -18.5t-49.5 18.5t-18.5 49.5t18.5 49.5t49.5 18.5zM269 346v-35q0 -52 -14 -92.5t-34 -66t-40 -47.5t-34 -49t-14 -58q0 -32 17.5 -54t52.5 -22q70 0 75 92h114q-6 -93 -55 -146.5t-133 -53.5q-83 0 -135 50 t-52 133q0 42 14 77t33.5 60t39.5 49.5t34 57t14 70.5v35h117z" />
<glyph unicode="&#xc0;" horiz-adv-x="485" d="M321 767h-86l-111 132h103zM353 0l-28 127h-164l-28 -127h-128l172 700h132l172 -700h-128zM186 244h114l-28 130q-8 40 -28 172h-3q-14 -109 -27 -172z" />
<glyph unicode="&#xc1;" horiz-adv-x="485" d="M375 899l-111 -132h-86l94 132h103zM353 0l-28 127h-164l-28 -127h-128l172 700h132l172 -700h-128zM186 244h114l-28 130q-8 40 -28 172h-3q-14 -109 -27 -172z" />
<glyph unicode="&#xc2;" horiz-adv-x="485" d="M242 835l-47 -68h-82l81 131h94l81 -131h-81zM353 0l-28 127h-164l-28 -127h-128l172 700h132l172 -700h-128zM186 244h114l-28 130q-8 40 -28 172h-3q-14 -109 -27 -172z" />
<glyph unicode="&#xc3;" horiz-adv-x="485" d="M216 813q-22 0 -25 -26h-72q3 48 26.5 73.5t59.5 25.5q23 0 46 -14.5t32 -14.5q10 0 17 7.5t9 18.5h71q-3 -46 -26 -72.5t-60 -26.5q-23 0 -45.5 14.5t-32.5 14.5zM353 0l-28 127h-164l-28 -127h-128l172 700h132l172 -700h-128zM186 244h114l-28 130q-8 40 -28 172h-3 q-14 -109 -27 -172z" />
<glyph unicode="&#xc4;" horiz-adv-x="485" d="M165 778q-25 0 -40.5 15t-15.5 41t15.5 41t40.5 15t40 -15.5t15 -40.5t-15 -40.5t-40 -15.5zM319 778q-25 0 -40.5 15t-15.5 41t15.5 41t40.5 15t40.5 -15t15.5 -41t-15.5 -41t-40.5 -15zM353 0l-28 127h-164l-28 -127h-128l172 700h132l172 -700h-128zM186 244h114 l-28 130q-8 40 -28 172h-3q-14 -109 -27 -172z" />
<glyph unicode="&#xc5;" horiz-adv-x="485" d="M245 763q-39 0 -62.5 23.5t-23.5 61.5q0 37 23.5 60t62.5 23t63 -23t24 -60q0 -38 -24 -61.5t-63 -23.5zM245 880q-14 0 -23 -9t-9 -24t9 -24t23 -9q15 0 24 9t9 24t-9 24t-24 9zM353 0l-28 127h-164l-28 -127h-128l172 700h132l172 -700h-128zM186 244h114l-28 130 q-8 40 -28 172h-3q-14 -109 -27 -172z" />
<glyph unicode="&#xc6;" horiz-adv-x="705" d="M451 116h217v-116h-340v132h-149l-48 -132h-131l268 700h390v-116h-207v-173h188v-112h-188v-183zM221 248h107v316h-4q-26 -106 -54 -183z" />
<glyph unicode="&#xc7;" horiz-adv-x="498" d="M475 208q-3 -94 -48.5 -150t-126.5 -67l-11 -39q2 1 10 1q32 0 52.5 -20.5t20.5 -53.5q0 -41 -29.5 -66t-76.5 -25q-41 0 -71 24.5t-34 62.5h66q11 -27 40 -27q17 0 26.5 9.5t9.5 24.5q0 30 -35 30q-21 0 -34 -8l-19 19l19 66q-89 6 -138.5 63t-49.5 158v280 q0 108 55.5 166t154.5 58q100 0 155.5 -57.5t60.5 -164.5h-123q-3 54 -26 78.5t-68 24.5q-82 0 -82 -105v-280q0 -103 83 -103q46 0 69 24.5t27 76.5h123z" />
<glyph unicode="&#xc8;" d="M316 767h-86l-111 132h103zM189 116h239v-116h-362v700h352v-116h-229v-173h210v-112h-210v-183z" />
<glyph unicode="&#xc9;" d="M370 899l-111 -132h-86l94 132h103zM189 116h239v-116h-362v700h352v-116h-229v-173h210v-112h-210v-183z" />
<glyph unicode="&#xca;" d="M237 835l-47 -68h-82l81 131h94l81 -131h-81zM189 116h239v-116h-362v700h352v-116h-229v-173h210v-112h-210v-183z" />
<glyph unicode="&#xcb;" d="M160 778q-26 0 -41 15t-15 41t15 41t41 15q25 0 40 -15.5t15 -40.5t-15 -40.5t-40 -15.5zM314 778q-26 0 -41 15t-15 41t15 41t41 15t41 -15t15 -41t-15 -41t-41 -15zM189 116h239v-116h-362v700h352v-116h-229v-173h210v-112h-210v-183z" />
<glyph unicode="&#xcc;" horiz-adv-x="254" d="M207 767h-86l-111 132h103zM66 700h123v-700h-123v700z" />
<glyph unicode="&#xcd;" horiz-adv-x="254" d="M64 767l94 132h103l-111 -132h-86zM66 700h123v-700h-123v700z" />
<glyph unicode="&#xce;" horiz-adv-x="254" d="M128 835l-47 -68h-82l81 131h94l81 -131h-81zM66 0v700h123v-700h-123z" />
<glyph unicode="&#xcf;" horiz-adv-x="259" d="M57 778q-25 0 -40.5 15t-15.5 41t15.5 41t40.5 15t40.5 -15t15.5 -41t-15.5 -41t-40.5 -15zM204 778q-26 0 -41 15t-15 41t15 41t41 15t41 -15t15 -41t-15 -41t-41 -15zM68 700h123v-700h-123v700z" />
<glyph unicode="&#xd0;" horiz-adv-x="525" d="M251 700q106 0 167 -55.5t61 -154.5v-276q0 -101 -61 -157.5t-165 -56.5h-180v319h-66v77h66v304h178zM353 215v274q0 50 -24 72t-70 22h-63v-187h77v-77h-77v-202h63q47 0 70.5 22.5t23.5 75.5z" />
<glyph unicode="&#xd1;" horiz-adv-x="563" d="M255 813q-22 0 -25 -26h-72q3 48 26.5 73.5t59.5 25.5q23 0 46 -14.5t32 -14.5q10 0 17 7.5t9 18.5h71q-3 -46 -26 -72.5t-60 -26.5q-23 0 -45.5 14.5t-32.5 14.5zM376 700h121v-700h-122l-135 304q-59 153 -65 171l-3 -3q15 -132 15 -271v-201h-121v700h122l146 -329 q10 -25 29.5 -75.5t26.5 -67.5l3 3q-17 134 -17 256v213z" />
<glyph unicode="&#xd2;" horiz-adv-x="533" d="M345 767h-86l-111 132h103zM267 -12q-104 0 -162.5 63t-58.5 174v250q0 111 58.5 174t162.5 63q103 0 161.5 -63t58.5 -174v-250q0 -111 -58.5 -174t-161.5 -63zM267 107q93 0 93 118v250q0 118 -93 118q-94 0 -94 -118v-250q0 -118 94 -118z" />
<glyph unicode="&#xd3;" horiz-adv-x="533" d="M202 767l94 132h103l-111 -132h-86zM267 -12q-104 0 -162.5 63t-58.5 174v250q0 111 58.5 174t162.5 63q103 0 161.5 -63t58.5 -174v-250q0 -111 -58.5 -174t-161.5 -63zM267 107q93 0 93 118v250q0 118 -93 118q-94 0 -94 -118v-250q0 -118 94 -118z" />
<glyph unicode="&#xd4;" horiz-adv-x="533" d="M266 835l-47 -68h-82l81 131h94l81 -131h-81zM267 712q103 0 161.5 -63t58.5 -174v-250q0 -111 -58.5 -174t-161.5 -63q-104 0 -162.5 63t-58.5 174v250q0 111 58.5 174t162.5 63zM360 225v250q0 118 -93 118q-94 0 -94 -118v-250q0 -118 94 -118q93 0 93 118z" />
<glyph unicode="&#xd5;" horiz-adv-x="533" d="M240 813q-22 0 -25 -26h-72q3 48 26.5 73.5t59.5 25.5q23 0 46 -14.5t32 -14.5q10 0 17 7.5t9 18.5h71q-3 -46 -26 -72.5t-60 -26.5q-23 0 -45.5 14.5t-32.5 14.5zM267 -12q-104 0 -162.5 63t-58.5 174v250q0 111 58.5 174t162.5 63q103 0 161.5 -63t58.5 -174v-250 q0 -111 -58.5 -174t-161.5 -63zM267 107q93 0 93 118v250q0 118 -93 118q-94 0 -94 -118v-250q0 -118 94 -118z" />
<glyph unicode="&#xd6;" horiz-adv-x="533" d="M189 778q-25 0 -40.5 15t-15.5 41t15.5 41t40.5 15t40 -15.5t15 -40.5t-15 -40.5t-40 -15.5zM343 778q-25 0 -40.5 15t-15.5 41t15.5 41t40.5 15t40.5 -15t15.5 -41t-15.5 -41t-40.5 -15zM267 -12q-104 0 -162.5 63t-58.5 174v250q0 111 58.5 174t162.5 63 q103 0 161.5 -63t58.5 -174v-250q0 -111 -58.5 -174t-161.5 -63zM267 107q93 0 93 118v250q0 118 -93 118q-94 0 -94 -118v-250q0 -118 94 -118z" />
<glyph unicode="&#xd7;" horiz-adv-x="471" d="M114 100l-77 77l122 122l-121 120l76 78l122 -122l121 122l77 -78l-121 -120l121 -122l-77 -77l-121 122z" />
<glyph unicode="&#xd8;" horiz-adv-x="541" d="M415 666q76 -64 76 -191v-250q0 -111 -58.5 -174t-162.5 -63q-30 0 -57 6l-18 -61h-95l30 98q-80 62 -80 194v250q0 111 58.5 174t161.5 63q35 0 62 -7l18 62h95zM364 225v250q0 118 -94 118q-93 0 -93 -118v-250q0 -118 93 -118q94 0 94 118z" />
<glyph unicode="&#xd9;" horiz-adv-x="538" d="M348 767h-86l-111 132h103zM269 -11q-100 0 -157.5 61t-57.5 171v479h127v-479q0 -113 88 -113t88 113v479h128v-479q0 -110 -57.5 -171t-158.5 -61z" />
<glyph unicode="&#xda;" horiz-adv-x="538" d="M205 767l94 132h103l-111 -132h-86zM269 -11q-100 0 -157.5 61t-57.5 171v479h127v-479q0 -113 88 -113t88 113v479h128v-479q0 -110 -57.5 -171t-158.5 -61z" />
<glyph unicode="&#xdb;" horiz-adv-x="538" d="M269 835l-47 -68h-82l81 131h94l81 -131h-81zM357 700h128v-479q0 -110 -57.5 -171t-158.5 -61q-100 0 -157.5 61t-57.5 171v479h127v-479q0 -113 88 -113t88 113v479z" />
<glyph unicode="&#xdc;" horiz-adv-x="538" d="M192 778q-26 0 -41 15t-15 41t15 41t41 15q25 0 40 -15.5t15 -40.5t-15 -40.5t-40 -15.5zM346 778q-26 0 -41 15t-15 41t15 41t41 15t41 -15t15 -41t-15 -41t-41 -15zM269 -11q-100 0 -157.5 61t-57.5 171v479h127v-479q0 -113 88 -113t88 113v479h128v-479 q0 -110 -57.5 -171t-158.5 -61z" />
<glyph unicode="&#xdd;" horiz-adv-x="460" d="M166 767l94 132h103l-111 -132h-86zM169 0v218l-168 482h128l67 -212q15 -44 33 -111h3q15 59 33 113l66 210h128l-167 -482v-218h-123z" />
<glyph unicode="&#xde;" horiz-adv-x="501" d="M260 595q106 0 165 -61.5t59 -171.5q0 -111 -59 -172t-165 -61h-71v-129h-123v700h123v-105h71zM259 246q99 0 99 116t-99 116h-70v-232h70z" />
<glyph unicode="&#xdf;" horiz-adv-x="489" d="M376 364q41 -25 65 -67t24 -90q0 -94 -56.5 -150.5t-147.5 -56.5h-37v117h18q97 0 97 90q0 96 -94 96h-21v113h16q81 0 81 89q0 93 -72 93q-73 0 -73 -95v-503h-122v503q0 96 53 153.5t143 57.5q89 0 142 -58t53 -152q0 -90 -69 -140z" />
<glyph unicode="&#xe0;" horiz-adv-x="458" d="M304 609h-85l-92 132h103zM228 542q177 0 177 -199v-343h-95l-7 50q-36 -64 -117 -64q-72 0 -115.5 46t-43.5 119q0 81 53.5 123.5t143.5 42.5h62v26q0 85 -60 85q-59 0 -66 -58h-118q4 80 53 126t133 46zM286 162v55h-60q-79 0 -79 -66q0 -28 17 -45t50 -17t52.5 19.5 t19.5 53.5z" />
<glyph unicode="&#xe1;" horiz-adv-x="458" d="M343 741l-92 -132h-85l74 132h103zM228 542q177 0 177 -199v-343h-95l-7 50q-36 -64 -117 -64q-72 0 -115.5 46t-43.5 119q0 81 53.5 123.5t143.5 42.5h62v26q0 85 -60 85q-59 0 -66 -58h-118q4 80 53 126t133 46zM286 162v55h-60q-79 0 -79 -66q0 -28 17 -45t50 -17 t52.5 19.5t19.5 53.5z" />
<glyph unicode="&#xe2;" horiz-adv-x="458" d="M229 677l-47 -68h-82l81 131h94l81 -131h-81zM228 542q177 0 177 -199v-343h-95l-7 50q-36 -64 -117 -64q-72 0 -115.5 46t-43.5 119q0 81 53.5 123.5t143.5 42.5h62v26q0 85 -60 85q-59 0 -66 -58h-118q4 80 53 126t133 46zM286 162v55h-60q-79 0 -79 -66q0 -28 17 -45 t50 -17t52.5 19.5t19.5 53.5z" />
<glyph unicode="&#xe3;" horiz-adv-x="458" d="M195 644q-22 0 -25 -26h-72q3 48 26.5 73.5t59.5 25.5q23 0 46 -14.5t32 -14.5q10 0 17 7.5t9 18.5h71q-3 -46 -26 -72.5t-60 -26.5q-23 0 -45.5 14.5t-32.5 14.5zM228 542q177 0 177 -199v-343h-95l-7 50q-36 -64 -117 -64q-72 0 -115.5 46t-43.5 119q0 81 53.5 123.5 t143.5 42.5h62v26q0 85 -60 85q-59 0 -66 -58h-118q4 80 53 126t133 46zM286 162v55h-60q-79 0 -79 -66q0 -28 17 -45t50 -17t52.5 19.5t19.5 53.5z" />
<glyph unicode="&#xe4;" horiz-adv-x="458" d="M153 618q-25 0 -40.5 15t-15.5 41q0 25 15 40t41 15t41 -15t15 -40q0 -26 -15.5 -41t-40.5 -15zM305 618q-26 0 -41.5 15.5t-15.5 40.5t15.5 40t41.5 15q25 0 40.5 -15t15.5 -40t-15.5 -40.5t-40.5 -15.5zM228 542q177 0 177 -199v-343h-95l-7 50q-36 -64 -117 -64 q-72 0 -115.5 46t-43.5 119q0 81 53.5 123.5t143.5 42.5h62v26q0 85 -60 85q-59 0 -66 -58h-118q4 80 53 126t133 46zM286 162v55h-60q-79 0 -79 -66q0 -28 17 -45t50 -17t52.5 19.5t19.5 53.5z" />
<glyph unicode="&#xe5;" horiz-adv-x="458" d="M229 606q-39 0 -62.5 23.5t-23.5 61.5q0 37 23.5 60t62.5 23t63 -23t24 -60q0 -38 -24 -61.5t-63 -23.5zM229 723q-14 0 -23 -9t-9 -24t9 -24t23 -9q15 0 24 9t9 24t-9 24t-24 9zM228 542q177 0 177 -199v-343h-95l-7 50q-36 -64 -117 -64q-72 0 -115.5 46t-43.5 119 q0 81 53.5 123.5t143.5 42.5h62v26q0 85 -60 85q-59 0 -66 -58h-118q4 80 53 126t133 46zM286 162v55h-60q-79 0 -79 -66q0 -28 17 -45t50 -17t52.5 19.5t19.5 53.5z" />
<glyph unicode="&#xe6;" horiz-adv-x="694" d="M542 168h120q-7 -86 -58 -133t-136 -47q-78 0 -129 60q-45 -61 -154 -61q-72 0 -115 45.5t-43 119.5q0 81 53.5 122t146.5 41h60v30q0 83 -60 83t-67 -58h-118q4 80 53.5 126t133.5 46q79 0 119 -54q46 54 121 54q87 0 137 -53t50 -148v-116h-254v-33q0 -91 68 -91 q34 0 50.5 16t21.5 51zM402 342v-34h137v34q0 90 -69 90q-68 0 -68 -90zM287 162v56h-59q-81 0 -81 -66q0 -29 17.5 -46t50.5 -17q34 0 53 19.5t19 53.5z" />
<glyph unicode="&#xe7;" horiz-adv-x="440" d="M417 185q-2 -83 -43 -133.5t-113 -61.5l-10 -38q2 1 10 1q32 0 52.5 -20.5t20.5 -53.5q0 -41 -29.5 -66t-76.5 -25q-41 0 -71 24.5t-34 62.5h66q11 -27 40 -27q17 0 26.5 9.5t9.5 24.5q0 30 -35 30q-21 0 -34 -8l-19 19l19 67q-73 9 -113.5 60t-40.5 135v161q0 92 49 144 t135 52q89 0 137 -51.5t51 -144.5h-119q-3 83 -67 83q-67 0 -67 -83v-161q0 -84 67 -84q66 0 70 84h119z" />
<glyph unicode="&#xe8;" horiz-adv-x="456" d="M303 608h-85l-92 132h103zM305 167h119q-8 -85 -59 -132t-138 -47q-86 0 -135.5 54t-49.5 150v149q0 95 49.5 148t136.5 53q89 0 139 -53t50 -148v-118h-257v-31q0 -91 69 -91q36 0 52.5 15t23.5 51zM229 432q-69 0 -69 -90v-35h140v35q0 90 -71 90z" />
<glyph unicode="&#xe9;" horiz-adv-x="456" d="M342 740l-92 -132h-85l74 132h103zM305 167h119q-8 -85 -59 -132t-138 -47q-86 0 -135.5 54t-49.5 150v149q0 95 49.5 148t136.5 53q89 0 139 -53t50 -148v-118h-257v-31q0 -91 69 -91q36 0 52.5 15t23.5 51zM229 432q-69 0 -69 -90v-35h140v35q0 90 -71 90z" />
<glyph unicode="&#xea;" horiz-adv-x="456" d="M228 676l-47 -68h-82l81 131h94l81 -131h-81zM305 167h119q-8 -85 -59 -132t-138 -47q-86 0 -135.5 54t-49.5 150v149q0 95 49.5 148t136.5 53q89 0 139 -53t50 -148v-118h-257v-31q0 -91 69 -91q36 0 52.5 15t23.5 51zM229 432q-69 0 -69 -90v-35h140v35q0 90 -71 90z " />
<glyph unicode="&#xeb;" horiz-adv-x="456" d="M152 617q-26 0 -41 15.5t-15 40.5t15 40t41 15t41 -15t15 -40t-15 -40.5t-41 -15.5zM304 617q-26 0 -41.5 15.5t-15.5 40.5t15.5 40t41.5 15q25 0 40.5 -15t15.5 -40t-15.5 -40.5t-40.5 -15.5zM305 167h119q-8 -85 -59 -132t-138 -47q-86 0 -135.5 54t-49.5 150v149 q0 95 49.5 148t136.5 53q89 0 139 -53t50 -148v-118h-257v-31q0 -91 69 -91q36 0 52.5 15t23.5 51zM229 432q-69 0 -69 -90v-35h140v35q0 90 -71 90z" />
<glyph unicode="&#xec;" horiz-adv-x="226" d="M12 741h103l74 -132h-85zM54 0v529h118v-529h-118z" />
<glyph unicode="&#xed;" horiz-adv-x="226" d="M228 741l-92 -132h-85l74 132h103zM54 0v529h118v-529h-118z" />
<glyph unicode="&#xee;" horiz-adv-x="238" d="M119 677l-45 -68h-79l79 131h90l79 -131h-80zM60 0v529h118v-529h-118z" />
<glyph unicode="&#xef;" horiz-adv-x="250" d="M55 620q-24 0 -39 14.5t-15 39.5t15 39.5t39 14.5q25 0 39.5 -14.5t14.5 -39.5t-14.5 -39.5t-39.5 -14.5zM196 620q-25 0 -40 14.5t-15 39.5t15 39.5t40 14.5q24 0 38.5 -14.5t14.5 -39.5t-14.5 -39.5t-38.5 -14.5zM65 0v529h119v-529h-119z" />
<glyph unicode="&#xf0;" horiz-adv-x="466" d="M352 625q70 -94 71 -247v-184q0 -98 -50.5 -152t-140.5 -54t-140 54t-50 152v107q0 98 47.5 151.5t131.5 53.5q40 0 72 -19q-14 48 -44 86l-72 -36l-18 40l57 28q-30 24 -73 40l42 93q82 -25 138 -79l62 31l18 -40zM303 194v107q0 90 -71 90q-70 0 -70 -90v-107 q0 -91 70 -91q71 0 71 91z" />
<glyph unicode="&#xf1;" horiz-adv-x="473" d="M203 643q-22 0 -25 -26h-72q3 48 26.5 73.5t59.5 25.5q23 0 46 -14.5t32 -14.5q10 0 17 7.5t9 18.5h71q-3 -46 -26 -72.5t-60 -26.5q-23 0 -45.5 14.5t-32.5 14.5zM272 542q73 0 112.5 -54t39.5 -160v-328h-118v325q0 104 -62 104q-34 0 -53 -25.5t-19 -72.5v-331h-118 v529h80l10 -57q42 70 128 70z" />
<glyph unicode="&#xf2;" horiz-adv-x="467" d="M131 741h103l74 -132h-85zM233 -13q-90 0 -140.5 54t-50.5 152v143q0 98 50.5 152t140.5 54q91 0 141.5 -54t50.5 -152v-143q0 -98 -50.5 -152t-141.5 -54zM233 102q72 0 72 91v143q0 91 -72 91q-71 0 -71 -91v-143q0 -91 71 -91z" />
<glyph unicode="&#xf3;" horiz-adv-x="467" d="M347 741l-92 -132h-85l74 132h103zM233 -13q-90 0 -140.5 54t-50.5 152v143q0 98 50.5 152t140.5 54q91 0 141.5 -54t50.5 -152v-143q0 -98 -50.5 -152t-141.5 -54zM233 102q72 0 72 91v143q0 91 -72 91q-71 0 -71 -91v-143q0 -91 71 -91z" />
<glyph unicode="&#xf4;" horiz-adv-x="467" d="M233 677l-47 -68h-82l81 131h94l81 -131h-81zM233 542q91 0 141.5 -54t50.5 -152v-143q0 -98 -50.5 -152t-141.5 -54q-90 0 -140.5 54t-50.5 152v143q0 98 50.5 152t140.5 54zM305 193v143q0 91 -72 91q-71 0 -71 -91v-143q0 -91 71 -91q72 0 72 91z" />
<glyph unicode="&#xf5;" horiz-adv-x="467" d="M199 644q-22 0 -25 -26h-72q3 48 26.5 73.5t59.5 25.5q23 0 46 -14.5t32 -14.5q10 0 17 7.5t9 18.5h71q-3 -46 -26 -72.5t-60 -26.5q-23 0 -45.5 14.5t-32.5 14.5zM233 -13q-90 0 -140.5 54t-50.5 152v143q0 98 50.5 152t140.5 54q91 0 141.5 -54t50.5 -152v-143 q0 -98 -50.5 -152t-141.5 -54zM233 102q72 0 72 91v143q0 91 -72 91q-71 0 -71 -91v-143q0 -91 71 -91z" />
<glyph unicode="&#xf6;" horiz-adv-x="467" d="M157 618q-25 0 -40.5 15t-15.5 41q0 25 15 40t41 15t41 -15t15 -40q0 -26 -15.5 -41t-40.5 -15zM309 618q-26 0 -41.5 15.5t-15.5 40.5t15.5 40t41.5 15q25 0 40.5 -15t15.5 -40t-15.5 -40.5t-40.5 -15.5zM233 -13q-90 0 -140.5 54t-50.5 152v143q0 98 50.5 152t140.5 54 q91 0 141.5 -54t50.5 -152v-143q0 -98 -50.5 -152t-141.5 -54zM233 102q72 0 72 91v143q0 91 -72 91q-71 0 -71 -91v-143q0 -91 71 -91z" />
<glyph unicode="&#xf7;" horiz-adv-x="471" d="M237 396q-29 0 -47 18t-18 47t18 47t47 18t47 -18t18 -47t-18 -47t-47 -18zM41 253v101h389v-101h-389zM237 75q-29 0 -47 18t-18 47t18 47t47 18t47 -18t18 -47t-18 -47t-47 -18z" />
<glyph unicode="&#xf8;" horiz-adv-x="454" d="M359 497q60 -55 60 -161v-142q0 -98 -51 -152t-141 -54q-32 0 -62 8l-26 -67h-80l39 101q-63 54 -63 164v142q0 98 50.5 152t141.5 54q36 0 66 -9l26 70h80zM298 194v142q0 91 -71 91q-72 0 -72 -91v-142q0 -91 72 -91q71 0 71 91z" />
<glyph unicode="&#xf9;" horiz-adv-x="473" d="M308 608h-85l-92 132h103zM301 529h118v-529h-80l-10 57q-42 -70 -128 -70q-73 0 -112.5 54t-39.5 160v328h118v-325q0 -104 62 -104q34 0 53 25.5t19 72.5v331z" />
<glyph unicode="&#xfa;" horiz-adv-x="473" d="M347 740l-92 -132h-85l74 132h103zM301 529h118v-529h-80l-10 57q-42 -70 -128 -70q-73 0 -112.5 54t-39.5 160v328h118v-325q0 -104 62 -104q34 0 53 25.5t19 72.5v331z" />
<glyph unicode="&#xfb;" horiz-adv-x="473" d="M233 676l-47 -68h-82l81 131h94l81 -131h-81zM301 529h118v-529h-80l-10 57q-42 -70 -128 -70q-73 0 -112.5 54t-39.5 160v328h118v-325q0 -104 62 -104q34 0 53 25.5t19 72.5v331z" />
<glyph unicode="&#xfc;" horiz-adv-x="473" d="M157 617q-25 0 -40.5 15.5t-15.5 40.5t15 40t41 15t41 -15t15 -40t-15.5 -40.5t-40.5 -15.5zM309 617q-26 0 -41.5 15.5t-15.5 40.5t15.5 40t41.5 15q25 0 40.5 -15t15.5 -40t-15.5 -40.5t-40.5 -15.5zM301 529h118v-529h-80l-10 57q-42 -70 -128 -70q-73 0 -112.5 54 t-39.5 160v328h118v-325q0 -104 62 -104q34 0 53 25.5t19 72.5v331z" />
<glyph unicode="&#xfd;" horiz-adv-x="434" d="M329 743l-92 -132h-85l74 132h103zM311 529h121l-164 -556q-22 -77 -57 -119.5t-94 -42.5h-61v114h37q26 0 39 16t24 53l17 60l-171 475h123l98 -305z" />
<glyph unicode="&#xfe;" horiz-adv-x="469" d="M259 552q77 0 123 -55.5t46 -150.5v-149q0 -94 -46 -149.5t-123 -55.5q-50 0 -90 35v-207h-115v904h115v-207q40 35 90 35zM307 197v149q0 94 -66 94q-34 0 -53 -24.5t-19 -69.5v-149q0 -44 19 -68.5t53 -24.5q66 0 66 93z" />
<glyph unicode="&#xff;" horiz-adv-x="434" d="M139 620q-25 0 -40.5 15t-15.5 41q0 25 15 40t41 15t41 -15t15 -40q0 -26 -15.5 -41t-40.5 -15zM291 620q-26 0 -41.5 15.5t-15.5 40.5t15.5 40t41.5 15q25 0 40.5 -15t15.5 -40t-15.5 -40.5t-40.5 -15.5zM311 529h121l-164 -556q-22 -77 -57 -119.5t-94 -42.5h-61v114 h37q26 0 39 16t24 53l17 60l-171 475h123l98 -305z" />
<glyph unicode="&#x131;" horiz-adv-x="226" d="M54 0v529h118v-529h-118z" />
<glyph unicode="&#x152;" horiz-adv-x="760" d="M484 116h240v-116h-363v33q-47 -45 -110 -45q-95 0 -150 63t-55 174v250q0 111 55 174t150 63q63 0 110 -45v33h352v-116h-229v-173h210v-112h-210v-183zM360 225v250q0 118 -99 118q-88 0 -88 -118v-250q0 -118 88 -118q99 0 99 118z" />
<glyph unicode="&#x153;" horiz-adv-x="714" d="M563 169h119q-7 -86 -58 -133.5t-136 -47.5q-80 0 -126 58q-48 -58 -130 -58q-90 0 -140 54t-50 152v141q0 99 50 152t140 53q82 0 130 -56q45 56 126 56q89 0 138.5 -52.5t49.5 -147.5v-116h-255v-32q0 -91 68 -91q35 0 52 16t22 52zM421 341v-34h139v34q0 90 -71 90 q-68 0 -68 -90zM304 194v141q0 91 -72 91q-71 0 -71 -91v-141q0 -91 71 -91q72 0 72 91z" />
<glyph unicode="&#x178;" horiz-adv-x="460" d="M153 778q-25 0 -40.5 15t-15.5 41t15.5 41t40.5 15t40 -15.5t15 -40.5t-15 -40.5t-40 -15.5zM307 778q-25 0 -40.5 15t-15.5 41t15.5 41t40.5 15t40.5 -15t15.5 -41t-15.5 -41t-40.5 -15zM169 0v218l-168 482h128l67 -212q15 -44 33 -111h3q15 59 33 113l66 210h128 l-167 -482v-218h-123z" />
<glyph unicode="&#x2000;" />
<glyph unicode="&#x2001;" horiz-adv-x="931" />
<glyph unicode="&#x2002;" />
<glyph unicode="&#x2003;" horiz-adv-x="931" />
<glyph unicode="&#x2004;" horiz-adv-x="310" />
<glyph unicode="&#x2005;" horiz-adv-x="232" />
<glyph unicode="&#x2006;" horiz-adv-x="155" />
<glyph unicode="&#x2007;" horiz-adv-x="155" />
<glyph unicode="&#x2008;" horiz-adv-x="116" />
<glyph unicode="&#x2009;" horiz-adv-x="186" />
<glyph unicode="&#x200a;" horiz-adv-x="51" />
<glyph unicode="&#x2010;" horiz-adv-x="315" d="M34 206v102h247v-102h-247z" />
<glyph unicode="&#x2011;" horiz-adv-x="315" d="M34 206v102h247v-102h-247z" />
<glyph unicode="&#x2012;" horiz-adv-x="315" d="M34 206v102h247v-102h-247z" />
<glyph unicode="&#x2013;" horiz-adv-x="415" d="M34 206v102h347v-102h-347z" />
<glyph unicode="&#x2014;" horiz-adv-x="550" d="M34 308h483v-102h-483v102z" />
<glyph unicode="&#x2018;" horiz-adv-x="168" d="M126 450h-113l63 250h70z" />
<glyph unicode="&#x2019;" horiz-adv-x="168" d="M42 702h112l-62 -250h-71z" />
<glyph unicode="&#x201a;" horiz-adv-x="181" d="M44 110h113l-63 -250h-70z" />
<glyph unicode="&#x201c;" horiz-adv-x="313" d="M126 450h-113l63 250h70zM272 450h-113l63 250h70z" />
<glyph unicode="&#x201d;" horiz-adv-x="313" d="M42 700h112l-62 -250h-71zM187 700h113l-63 -250h-70z" />
<glyph unicode="&#x201e;" horiz-adv-x="181" d="M44 110h113l-63 -250h-70z" />
<glyph unicode="&#x2022;" horiz-adv-x="225" d="M112 159q-41 0 -66.5 25.5t-25.5 66.5t25.5 66t66.5 25q40 0 65 -25t25 -66t-25 -66.5t-65 -25.5z" />
<glyph unicode="&#x2026;" horiz-adv-x="566" d="M100 -10q-31 0 -49.5 18.5t-18.5 49.5t18.5 50t49.5 19t50 -19t19 -50t-19 -49.5t-50 -18.5zM283 -10q-31 0 -49.5 18.5t-18.5 49.5t18.5 50t49.5 19t49.5 -19t18.5 -50t-18.5 -49.5t-49.5 -18.5zM466 -10q-31 0 -49.5 18.5t-18.5 49.5t18.5 50t49.5 19t49.5 -19 t18.5 -50t-18.5 -49.5t-49.5 -18.5z" />
<glyph unicode="&#x202f;" horiz-adv-x="186" />
<glyph unicode="&#x2039;" horiz-adv-x="297" d="M147 86l-113 151v40l113 151h116l-127 -171l127 -171h-116z" />
<glyph unicode="&#x203a;" horiz-adv-x="297" d="M150 86h-116l127 171l-127 171h116l113 -151v-40z" />
<glyph unicode="&#x205f;" horiz-adv-x="232" />
<glyph unicode="&#x20ac;" horiz-adv-x="562" d="M416 208h123q-4 -106 -60.5 -163t-158.5 -57q-99 0 -154.5 57.5t-55.5 164.5v50h-80v68h80v50h-80v69h80v43q0 108 55.5 166t153.5 58q100 0 156 -57.5t61 -164.5h-123q-4 54 -26.5 78.5t-67.5 24.5q-82 0 -82 -105v-43h127v-69h-127v-50h127v-68h-127v-50 q0 -103 83 -103q46 0 69 24.5t27 76.5z" />
<glyph unicode="&#x2122;" horiz-adv-x="474" d="M20 646v54h166v-54h-54v-218h-57v218h-55zM385 700h63v-272h-56v46q0 65 5 130l-4 1q-19 -60 -21 -68l-14 -43h-53l-14 43q-10 37 -22 68l-3 -1q5 -65 5 -130v-46h-56v272h62l21 -49q26 -67 33 -104q8 34 34 104z" />
<glyph unicode="&#x25fc;" horiz-adv-x="530" d="M0 530h530v-530h-530v530z" />
<glyph horiz-adv-x="226" d="M113 611q-30 0 -49 19.5t-19 49.5t19 49.5t49 19.5q29 0 49 -19.5t20 -49.5q0 -28 -20 -48.5t-49 -20.5zM54 0v529h118v-529h-118z" />
<glyph horiz-adv-x="550" d="M34 408h483v-102h-483v102z" />
<glyph horiz-adv-x="415" d="M34 306v102h347v-102h-347z" />
<glyph horiz-adv-x="315" d="M34 306v102h247v-102h-247z" />
<glyph horiz-adv-x="488" d="M147 146l-113 151v40l113 151h116l-127 -171l127 -171h-116zM338 146l-113 151v40l113 151h116l-127 -171l127 -171h-116z" />
<glyph horiz-adv-x="488" d="M150 146h-116l127 171l-127 171h116l113 -151v-40zM341 146h-116l127 171l-127 171h116l113 -151v-40z" />
<glyph horiz-adv-x="297" d="M147 146l-113 151v40l113 151h116l-127 -171l127 -171h-116z" />
<glyph horiz-adv-x="297" d="M150 146h-116l127 171l-127 171h116l113 -151v-40z" />
</font>
</defs>
</svg>
